<?xml version="1.0" encoding="UTF-8"?>
<svg version="1.1" xmlns="http://www.w3.org/2000/svg" width="512" height="512">
<path d="M0 0 C3.45952392 2.87872793 6.74726396 5.89109243 10 9 C11.01320312 9.90105469 11.01320312 9.90105469 12.046875 10.8203125 C29.48754637 26.93549285 38.76612407 51.63636977 40 75 C39.99794279 79.11168505 39.82763201 83.2063049 39.625 87.3125 C39.55164429 88.95593384 39.55164429 88.95593384 39.47680664 90.63256836 C39.13036026 98.10084379 38.6956408 105.55516334 38 113 C38.76183594 113.28875 39.52367187 113.5775 40.30859375 113.875 C45.90410007 116.2139054 48.92426451 119.16929909 51.375 124.625 C54.32935313 132.99152945 53.90970804 140.64696117 50.26171875 148.7109375 C46.75686323 155.06959179 42.51066953 158.86987042 36 162 C35.34 162 34.68 162 34 162 C34.0825 163.134375 34.165 164.26875 34.25 165.4375 C34.21450734 187.9398473 21.75283848 210.09579252 6.3671875 225.6640625 C1.70986856 230.05600714 -2.40901627 233.24057003 -8.1875 236 C-11.04850641 237.46056635 -11.04850641 237.46056635 -13 240 C-14.06439269 244.62592979 -13.72471662 249.20016375 -13.33837891 253.89125061 C-13.27534576 254.66105287 -13.21231262 255.43085512 -13.14736938 256.22398472 C-13.09873749 256.81006976 -13.05010559 257.3961548 -13 258 C2.37251765 264.28050757 15.87742405 265.99600019 32.38012695 265.82299805 C34.74460209 265.82434137 37.10907717 265.8288294 39.47354126 265.83618164 C44.51863256 265.84535058 49.56301698 265.83295164 54.6080265 265.80304527 C61.91037273 265.76007141 69.21234201 265.75798724 76.51476767 265.76765511 C88.38029424 265.78259202 100.24560204 265.76957928 112.11108398 265.7355957 C113.1712302 265.73257 113.1712302 265.73257 114.25279351 265.72948316 C115.68335566 265.72539074 117.11391781 265.72129685 118.54447995 265.71720149 C119.25385186 265.71517466 119.96322377 265.71314782 120.6940918 265.71105957 C121.75917882 265.70800936 121.75917882 265.70800936 122.84578275 265.70489753 C130.75842536 265.68268851 138.67107662 265.66784868 146.58374023 265.65551758 C147.29356575 265.6544039 148.00339127 265.65329021 148.73472665 265.65214279 C160.57796769 265.63417829 172.42117573 265.63225876 184.26442689 265.63930541 C192.19623746 265.64296875 200.12767812 265.62400121 208.05940974 265.58831251 C212.98514195 265.56976778 217.910789 265.56743694 222.83655167 265.5692215 C225.11822207 265.56656421 227.39989655 265.55700695 229.6815052 265.54001045 C232.79795927 265.51766223 235.91348163 265.5199415 239.02998352 265.52812195 C239.93007481 265.51558669 240.83016611 265.50305144 241.75753289 265.49013633 C247.60790665 265.53965375 252.21734094 266.48116577 257 270 C260.62724826 274.16813406 261.49971283 277.13852084 261.49447632 282.60351562 C261.5028653 283.91570068 261.51125427 285.22788574 261.51989746 286.57983398 C261.50893214 288.02197565 261.49756623 289.46411432 261.48583984 290.90625 C261.48798718 292.43432948 261.49186707 293.96240735 261.49734497 295.49047852 C261.50702122 299.63105153 261.49175657 303.77119193 261.47143888 307.91171265 C261.45384101 312.24907927 261.4573935 316.58643307 261.4581604 320.92382812 C261.45628861 328.20710465 261.4389415 335.4902143 261.41162109 342.7734375 C261.38017161 351.18838958 261.369625 359.60315897 261.3710922 368.01816559 C261.37244432 376.98466488 261.35855506 385.95109394 261.34019899 394.91757202 C261.33594102 397.4978665 261.33451727 400.0781496 261.33372116 402.65844727 C261.33170842 406.71652889 261.31946739 410.77445783 261.29938889 414.83248901 C261.29355968 416.31996729 261.29108393 417.80746315 261.29224396 419.29495239 C261.29322965 421.32881297 261.28064654 423.36266653 261.26742554 425.39648438 C261.26407385 426.53355835 261.26072216 427.67063232 261.25726891 428.84216309 C260.9863752 432.16723709 260.0745986 434.85819524 259 438 C259.79710582 440.12224655 259.79710582 440.12224655 261 442 C261.4303404 445.11508586 261.3702104 448.2330221 261.375 451.375 C261.39949219 452.21289062 261.42398437 453.05078125 261.44921875 453.9140625 C261.47526641 459.43616716 260.8031481 462.71672024 257 467 C251.58112551 471.72414904 246.80778864 471.56709304 239.80958557 471.50793457 C238.11258818 471.51729451 238.11258818 471.51729451 236.38130802 471.52684355 C232.58805949 471.54280606 228.79545063 471.53015576 225.00219727 471.51757812 C222.28362705 471.52079725 219.56508405 471.52997485 216.8465271 471.53881836 C210.22748871 471.55660072 203.60863179 471.55276476 196.9895863 471.5411678 C191.60933916 471.53213184 186.22914286 471.53091017 180.8488903 471.53526306 C180.08294924 471.53587599 179.31700818 471.53648893 178.52785678 471.53712043 C176.97181709 471.53839934 175.41577741 471.5396962 173.85973775 471.5410108 C159.26987245 471.55241596 144.6801077 471.53930431 130.09025889 471.51780933 C117.57534032 471.49994196 105.06057018 471.50303956 92.5456543 471.52148438 C78.00932002 471.54289841 63.47307388 471.55131356 48.93672603 471.53903532 C47.38612586 471.53776114 45.83552567 471.53650366 44.28492546 471.53526306 C43.14057001 471.53433741 43.14057001 471.53433741 41.97309627 471.53339306 C36.60070579 471.52994148 31.22837127 471.53576441 25.85598946 471.54518127 C19.30672119 471.55640873 12.75764464 471.5533458 6.20839829 471.5320583 C2.86764313 471.52155696 -0.4725284 471.51956834 -3.81332207 471.53065491 C-7.43673486 471.54157138 -11.05924667 471.527892 -14.68260193 471.50793457 C-16.26256703 471.5213189 -16.26256703 471.5213189 -17.87445062 471.53497362 C-24.13074571 471.46805041 -27.88425689 470.67330539 -33 467 C-36.55151654 463.10134275 -37.18132068 459.14950727 -37 454 C-38.46604833 454.00276538 -38.46604833 454.00276538 -39.96171379 454.00558662 C-63.71284911 454.04993127 -87.46397908 454.0828256 -111.21514702 454.10362434 C-122.70090071 454.11394908 -134.18662711 454.12803222 -145.67236328 454.15087891 C-155.68009621 454.1707762 -165.68780937 454.18370772 -175.69556153 454.18817699 C-180.99750408 454.19079059 -186.29939007 454.19695841 -191.60131454 454.21146011 C-196.58673433 454.22498627 -201.57207399 454.22923276 -206.55751038 454.22621536 C-208.39176493 454.22676776 -210.22602203 454.23077467 -212.06026077 454.23841095 C-214.55572592 454.24829461 -217.05088463 454.24599318 -219.5463562 454.24050903 C-220.64653794 454.24924756 -220.64653794 454.24924756 -221.76894557 454.25816262 C-226.77175758 454.22824242 -226.77175758 454.22824242 -229 452 C-229.26006222 449.98698235 -229.26006222 449.98698235 -229.27415466 447.46334839 C-229.28412979 446.50767975 -229.29410492 445.55201111 -229.30438232 444.56738281 C-229.305047 443.51502441 -229.30571167 442.46266602 -229.30639648 441.37841797 C-229.31472 440.27241241 -229.32304352 439.16640686 -229.33161926 438.02688599 C-229.35582467 434.34861779 -229.36450899 430.67052706 -229.37109375 426.9921875 C-229.38005974 424.43262682 -229.38918158 421.87306668 -229.39845276 419.31350708 C-229.41497921 413.93148169 -229.42268107 408.54952755 -229.42553711 403.16748047 C-229.42915034 396.98388505 -229.45887407 390.80079277 -229.50094169 384.61735046 C-229.54013915 378.6426142 -229.55113628 372.66815077 -229.55226326 366.69327164 C-229.55644383 364.16657941 -229.56879003 361.63988593 -229.58978081 359.11327744 C-229.77243987 335.20082885 -226.25323579 316.52632554 -208.91137695 298.72045898 C-197.67234141 288.21844027 -184.35097082 283.87357517 -170 279.25 C-167.93219094 278.56778381 -165.86505939 277.88351094 -163.79858398 277.19726562 C-159.5973258 275.80379808 -155.39329265 274.41924289 -151.18701172 273.04101562 C-142.62254424 270.22646641 -134.09773494 267.29728578 -125.57348633 264.36364746 C-121.60392393 262.99832641 -117.63192014 261.64015025 -113.66015625 260.28125 C-111.44004968 259.5209923 -109.22002483 258.76049636 -107 258 C-106.83056934 255.10951293 -106.70716078 252.22899973 -106.609375 249.3359375 C-106.55700684 248.5224585 -106.50463867 247.70897949 -106.45068359 246.87084961 C-106.29522226 242.28431256 -106.29522226 242.28431256 -108.2832489 238.29702759 C-109.8709873 236.90354211 -111.45914227 235.74243393 -113.25 234.625 C-114.27927612 233.96878662 -114.27927612 233.96878662 -115.3293457 233.29931641 C-115.91804443 232.98655762 -116.50674316 232.67379883 -117.11328125 232.3515625 C-134.55380606 222.32272178 -145.75974249 201.1747457 -151.22265625 182.44140625 C-151.82000527 179.79686111 -152.26663603 177.26867087 -152.62109375 174.58984375 C-153.29044504 166.75878271 -153.29044504 166.75878271 -156.75390625 160.0546875 C-158.7846827 158.84043115 -158.7846827 158.84043115 -160.9375 157.953125 C-165.68742622 155.75808334 -168.3803522 151.13245978 -170.8125 146.6875 C-173.25275708 139.10985958 -173.63774878 132.53642507 -171 125 C-168.36481526 120.20019922 -165.3662868 117.1837508 -161 114 C-158.8125 113.36328125 -158.8125 113.36328125 -157 113 C-157.2165625 111.12634766 -157.2165625 111.12634766 -157.4375 109.21484375 C-160.93300013 77.23334788 -159.89679124 46.00582863 -139.39453125 19.5546875 C-105.98466766 -21.85329495 -43.42588588 -33.7130254 0 0 Z " fill="#2A4368" transform="translate(240,30)"/>
<path d="M0 0 C0.95160665 -0.00782324 1.90321329 -0.01564648 2.8836565 -0.02370679 C4.45498608 -0.01366855 4.45498608 -0.01366855 6.05805969 -0.00342751 C7.16923251 -0.00810748 8.28040533 -0.01278745 9.42525005 -0.01760924 C13.16796306 -0.02962487 16.91031434 -0.02007617 20.6530304 -0.01066017 C23.32838519 -0.01472296 26.00371463 -0.01995417 28.67906189 -0.02659035 C35.20289559 -0.03994977 41.72662592 -0.03704016 48.25046372 -0.02835242 C53.55119569 -0.02158495 58.85189862 -0.02065509 64.15263367 -0.02392387 C65.2830721 -0.02461342 65.2830721 -0.02461342 66.43634766 -0.0253169 C67.96718988 -0.02627605 69.49803208 -0.02724869 71.02887428 -0.02823468 C85.39301798 -0.03679504 99.7571043 -0.02694432 114.12123859 -0.01083358 C126.45380471 0.0025702 138.78628612 0.00024229 151.11885071 -0.01358986 C165.43061246 -0.02963428 179.74232388 -0.035971 194.05409336 -0.02675307 C195.57939211 -0.02579739 197.10469086 -0.02485428 198.62998962 -0.02392387 C199.38052052 -0.02346105 200.13105141 -0.02299822 200.90432566 -0.02252137 C206.20040478 -0.01992806 211.49645206 -0.0243098 216.79252625 -0.03136253 C223.24423498 -0.03976512 229.69583418 -0.03752367 236.14753032 -0.0215203 C239.44107833 -0.0136207 242.73440516 -0.01218177 246.02795792 -0.02046776 C249.59367798 -0.02861398 253.15887711 -0.01844525 256.7245636 -0.00342751 C258.29589318 -0.01346575 258.29589318 -0.01346575 259.89896679 -0.02370679 C260.85057343 -0.01588355 261.80218008 -0.00806031 262.78262329 0 C263.60612935 0.00048706 264.42963541 0.00097411 265.2780962 0.00147593 C267.91239631 0.47025064 268.79908901 1.25844351 270.39131165 3.37752342 C270.76883507 6.06527519 270.76883507 6.06527519 270.77226257 9.37471581 C270.78072205 10.62821327 270.78918152 11.88171074 270.79789734 13.17319298 C270.79206425 14.56487213 270.78591973 15.95655 270.77949524 17.34822655 C270.78355969 18.81176712 270.78890086 20.27530462 270.79542542 21.73883629 C270.80912003 25.71608226 270.80379162 29.69309518 270.79428816 33.67034531 C270.78670263 37.82897008 270.79373409 41.98757464 270.79844666 46.14620018 C270.80390744 53.13040824 270.79670415 60.1145212 270.78242493 67.09871483 C270.76609776 75.17798882 270.77138604 83.2570357 270.78790414 91.33630419 C270.80150983 98.2680088 270.80344318 105.19964497 270.79558814 112.13135862 C270.79090655 116.2735558 270.79030003 120.41564618 270.8001976 124.55783653 C270.8088517 128.45175453 270.80287414 132.3453792 270.78551483 136.23926544 C270.78154162 137.66995379 270.78269829 139.10066675 270.78930283 140.53134537 C270.79747461 142.48099841 270.78542 144.43070527 270.77226257 146.38033104 C270.7711315 147.47244644 270.77000042 148.56456184 270.76883507 149.68977165 C270.32937286 152.81849227 269.84972823 153.48849895 267.39131165 155.37752342 C265.2780962 155.75472158 265.2780962 155.75472158 262.78262329 155.75784016 C261.83101665 155.7662801 260.87941 155.77472004 259.89896679 155.78341573 C258.85141374 155.77740569 257.80386068 155.77139564 256.7245636 155.76520348 C255.61339078 155.77058901 254.50221796 155.77597455 253.35737324 155.78152329 C249.61466883 155.79589017 245.87231375 155.78867754 242.1295929 155.78157616 C239.45423757 155.78727513 236.77890778 155.79413628 234.1035614 155.80237389 C227.57973434 155.81959302 221.05600346 155.82039554 214.53215957 155.81516098 C209.2314263 155.81112411 203.93072152 155.81255707 198.62998962 155.81790924 C197.87636401 155.81865766 197.12273839 155.81940608 196.34627563 155.82017719 C194.81543342 155.82170862 193.28459121 155.82324696 191.75374901 155.82479215 C177.38960902 155.83852826 163.02552346 155.83307154 148.6613847 155.82160694 C135.5106332 155.81167157 122.36002234 155.82461847 109.20929253 155.84854113 C95.71569032 155.87290318 82.2221537 155.88254726 68.72852993 155.87588841 C61.1490107 155.87238996 53.5695997 155.8746694 45.99009705 155.89213943 C39.53836629 155.90682525 33.08681997 155.90754452 26.63509297 155.89006852 C23.34148227 155.88152626 20.04827129 155.88163503 16.75466537 155.89472008 C13.18881378 155.90780947 9.62387109 155.89648903 6.05805969 155.87872887 C5.01050664 155.88833387 3.96295359 155.89793888 2.8836565 155.90783495 C1.93204986 155.89802066 0.98044321 155.88820637 0 155.87809467 C-0.82350606 155.87798734 -1.64701212 155.87788 -2.49547291 155.87776941 C-4.60868835 155.37752342 -4.60868835 155.37752342 -6.37313616 153.52093661 C-8.02290814 150.65894256 -7.98619915 148.59443788 -7.98963928 145.29804039 C-7.99809875 144.05158241 -8.00655823 142.80512444 -8.01527405 141.520895 C-8.00944135 140.14229262 -8.00329686 138.76369153 -7.99687195 137.38509178 C-8.00093762 135.93125578 -8.00627948 134.47742287 -8.01280212 133.02359581 C-8.02648092 129.07739907 -8.02117515 125.13143756 -8.01166487 121.18523669 C-8.00407261 117.05731428 -8.01111254 112.92941208 -8.01582336 108.80148888 C-8.02128157 101.87033532 -8.01408697 94.93927766 -7.99980164 88.00813866 C-7.98346852 79.99075929 -7.98876809 71.97360871 -8.00528085 63.95623487 C-8.0188862 57.07546494 -8.02082025 50.19476396 -8.01296484 43.31398493 C-8.0082839 39.2031015 -8.00767511 35.09232568 -8.01757431 30.98144913 C-8.02622815 27.11788573 -8.02025136 23.25461797 -8.00289154 19.39108658 C-7.99891846 17.97168532 -8.00007477 16.55225926 -8.00667953 15.13286781 C-8.01485168 13.19859507 -8.0027964 11.26426807 -7.98963928 9.33002281 C-7.98850821 8.24658057 -7.98737713 7.16313833 -7.98621178 6.04686451 C-7.28682184 1.10171358 -4.71152678 0.0027866 0 0 Z " fill="#BAF3FB" transform="translate(220.6086883544922,306.6224765777588)"/>
<path d="M0 0 C0.64876685 -0.00453111 1.2975337 -0.00906223 1.96596014 -0.01373065 C4.12603161 -0.02632643 6.28584939 -0.02475745 8.44595337 -0.02310181 C10.00034405 -0.02909004 11.55473177 -0.03589627 13.1091156 -0.04345703 C17.32198899 -0.06109322 21.53478108 -0.06581138 25.74768782 -0.0670886 C28.3820489 -0.068512 31.01638942 -0.07278513 33.65074539 -0.07808304 C42.84763141 -0.09657473 52.04445953 -0.10475464 61.24136353 -0.10317993 C69.80402804 -0.10197844 78.36644052 -0.12308445 86.92904127 -0.15466726 C94.28974793 -0.18084609 101.65037236 -0.19154657 109.01112521 -0.19026911 C113.40332382 -0.18975999 117.79529832 -0.19541546 122.18745041 -0.21662521 C126.31948092 -0.23603504 130.45107412 -0.23611355 134.58312035 -0.22159195 C136.0955755 -0.21950621 137.60805822 -0.22419077 139.12046623 -0.23631287 C148.12949522 -0.30381837 155.1876103 -0.1408235 162.31948853 6.01351929 C162.98851196 6.85076538 162.98851196 6.85076538 163.67105103 7.70492554 C164.36327759 8.53830444 164.36327759 8.53830444 165.06948853 9.38851929 C168.55617936 14.72959664 168.59783663 19.57613045 168.60244751 25.76425171 C168.61077103 26.7145224 168.61909454 27.66479309 168.62767029 28.64385986 C168.6517473 31.78274651 168.6605407 34.92142511 168.66714478 38.06039429 C168.67611451 40.2488969 168.68523641 42.4373989 168.69450378 44.62590027 C168.71099127 49.21483855 168.71869318 53.8037039 168.72158813 58.39266968 C168.72696436 64.25580227 168.76461473 70.11824345 168.8103323 75.98118114 C168.84016704 80.50325483 168.84731313 85.02516352 168.84831429 89.54732704 C168.85250563 91.70776846 168.86489603 93.86821087 168.88583183 96.02855492 C168.91287192 99.06075262 168.90788231 102.09136757 168.89541626 105.12362671 C168.91766769 106.4464994 168.91766769 106.4464994 168.94036865 107.7960968 C168.86286096 114.46055931 167.01533879 119.71474422 163.29605103 125.26742554 C159.16260669 129.22653659 154.91862901 131.39495732 149.17686462 131.38768005 C147.92117676 131.38974205 147.92117676 131.38974205 146.64012146 131.3918457 C145.72518417 131.38825043 144.81024689 131.38465515 143.86758423 131.38095093 C142.90154266 131.38109695 141.9355011 131.38124298 140.94018555 131.38139343 C137.7423784 131.38069594 134.54462927 131.37291116 131.34683228 131.36508179 C129.13151583 131.36321703 126.91619897 131.3617934 124.70088196 131.36079407 C118.86638249 131.35697347 113.03190786 131.34714705 107.19741821 131.33609009 C101.24527319 131.32586617 95.29312417 131.32129434 89.3409729 131.31625366 C77.65932135 131.3055244 65.97768825 131.28845343 54.29605103 131.26742554 C54.0721167 132.92656982 54.0721167 132.92656982 53.84365845 134.61923218 C52.54260818 143.28690681 47.90697367 151.52003257 41.08511353 157.06430054 C33.6953122 162.21997588 33.6953122 162.21997588 29.29605103 162.26742554 C25.88748943 159.77039962 24.5029016 158.12878836 23.51089478 153.99789429 C23.41937134 152.8287146 23.3278479 151.65953491 23.23355103 150.45492554 C22.31337844 142.26589033 22.31337844 142.26589033 18.29605103 135.26742554 C11.75122927 132.20176829 6.13345424 131.83405301 -0.99301147 131.82797241 C-7.63789814 131.66242111 -12.95826188 129.98185244 -17.76254272 125.23226929 C-18.44510132 124.22873413 -18.44510132 124.22873413 -19.14144897 123.20492554 C-19.85107788 122.19752319 -19.85107788 122.19752319 -20.57504272 121.16976929 C-22.38220629 118.12447981 -22.83087852 115.59163962 -22.85112 112.12614441 C-22.8582753 111.28375214 -22.8654306 110.44135986 -22.87280273 109.57344055 C-22.87549164 108.65237015 -22.87818054 107.73129974 -22.88095093 106.78231812 C-22.88752213 105.80961975 -22.89409332 104.83692139 -22.90086365 103.83474731 C-22.92059973 100.61048303 -22.93226073 97.38626536 -22.94223022 94.16195679 C-22.94630575 93.06040442 -22.95038128 91.95885204 -22.95458031 90.8239193 C-22.97544358 84.99218305 -22.98974352 79.16047034 -22.99911499 73.32870483 C-23.01017256 67.31074758 -23.04456457 61.29316077 -23.08428669 55.27533436 C-23.1104582 50.64355287 -23.11880739 46.01185952 -23.12239647 41.3800106 C-23.12726196 39.16210113 -23.13887483 36.94419557 -23.15743446 34.72635841 C-23.18183381 31.61711088 -23.18085897 28.50881998 -23.17391968 25.39950562 C-23.18672974 24.48855637 -23.19953979 23.57760712 -23.21273804 22.63905334 C-23.15967939 16.09448646 -21.80092125 10.70131521 -17.32736683 5.74108601 C-12.13273933 1.06562866 -6.80437583 0.01971828 0 0 Z " fill="#F3E682" transform="translate(331.7039489746094,104.73257446289063)"/>
<path d="M0 0 C13.39744997 3.9463408 23.60171926 21.23499118 29.98632812 32.78417969 C36.38276467 44.88933569 39.19446926 58.32271948 42.35498047 71.54833984 C42.90586831 73.98250389 42.90586831 73.98250389 44 76 C49.72801194 76.55927046 53.39047342 74.71365456 58.3125 72.125 C59.04017578 71.76019531 59.76785156 71.39539063 60.51757812 71.01953125 C64.42031041 69.23159138 64.42031041 69.23159138 67 66 C69.76939575 66.29672097 71.0620126 67.0499546 73.25 68.8125 C75.96707273 73.7614539 75.71740362 78.4803844 75 84 C73.29220499 89.39202694 69.88110776 92.32017613 65 95 C62.68798964 96.0792483 60.37113791 97.05154484 58 98 C57.99742187 98.76699219 57.99484375 99.53398437 57.9921875 100.32421875 C57.13849108 124.82530591 47.04616427 146.85919232 29.2734375 163.5625 C8.37253959 181.39150802 -14.20837515 185.50592319 -41 184 C-60.07544331 181.79295714 -79.8501471 168.19448834 -92 154 C-103.73890154 138.62875504 -110.25483398 121.05493977 -110.3984375 101.64453125 C-110.74590353 98.80065574 -110.74590353 98.80065574 -113.31640625 97.2578125 C-114.20199219 96.84273438 -115.08757812 96.42765625 -116 96 C-116.93005859 95.49146484 -116.93005859 95.49146484 -117.87890625 94.97265625 C-118.43449219 94.67230469 -118.99007812 94.37195313 -119.5625 94.0625 C-123.57607396 91.75033239 -126.25658764 89.59833658 -128.25 85.3125 C-130.49903163 75.37927695 -130.49903163 75.37927695 -127.65625 70.8671875 C-126.17637329 69.14299152 -124.66677188 67.54275612 -123 66 C-120.03824877 66.61277612 -118.61941217 67.25372522 -116 69 C-113.33243832 69.78762058 -110.70247982 70.48605994 -108 71.125 C-107.29488281 71.30675781 -106.58976562 71.48851562 -105.86328125 71.67578125 C-99.87579115 73.10546919 -94.13602746 73.19354292 -88 73 C-87.91435791 71.93563721 -87.82871582 70.87127441 -87.74047852 69.7746582 C-87.42101741 65.81412738 -87.09768178 61.85392067 -86.77319336 57.89379883 C-86.63346878 56.18197036 -86.49478568 54.47005655 -86.35717773 52.75805664 C-86.15884808 50.29289781 -85.95673684 47.82807333 -85.75390625 45.36328125 C-85.66321617 44.22080681 -85.66321617 44.22080681 -85.57069397 43.05525208 C-85.25863463 39.30778955 -84.84007179 35.66778514 -84 32 C-83.38181396 32.01571045 -82.76362793 32.0314209 -82.12670898 32.04760742 C-54.99372555 32.64440715 -29.85384388 27.78910686 -9 9 C-5.93344122 6.06159592 -2.93850915 3.06627041 0 0 Z " fill="#EEC496" transform="translate(207,87)"/>
<path d="M0 0 C0 57.75 0 115.5 0 175 C-24.09 175 -48.18 175 -73 175 C-73.03738281 168.1834375 -73.07476562 161.366875 -73.11328125 154.34375 C-73.14359757 149.99606965 -73.1747694 145.64842842 -73.20898438 141.30078125 C-73.26307648 134.41717634 -73.31419433 127.53364881 -73.34643555 120.64990234 C-73.37266183 115.09302229 -73.41319738 109.53640582 -73.46318626 103.97969055 C-73.4797254 101.87172249 -73.49131954 99.76370897 -73.49761391 97.65568542 C-73.5465991 82.74265016 -73.65586206 67.42591756 -80.25 53.6875 C-80.54648438 53.03434814 -80.84296875 52.38119629 -81.1484375 51.70825195 C-83.56565092 46.53549141 -86.50392984 41.79296081 -89.8125 37.13671875 C-90.4003125 36.07904297 -90.4003125 36.07904297 -91 35 C-89.68069034 31.04207102 -88.38898368 30.79552969 -84.70703125 28.91015625 C-73.529285 23.37697 -61.43946196 19.90127469 -49.60656738 16.06140137 C-45.17545227 14.62081684 -40.75020912 13.16227356 -36.32376099 11.70742798 C-33.88880539 10.90745204 -31.45332859 10.10906058 -29.01730347 9.31234741 C-21.5580397 6.86693956 -14.13247174 4.34706351 -6.75920105 1.6526947 C-2.20018948 0 -2.20018948 0 0 0 Z " fill="#4D6CC9" transform="translate(135,299)"/>
<path d="M0 0 C14.42547957 10.71816802 24.61731477 23.56088344 32 39.875 C32.41161377 40.77472534 32.41161377 40.77472534 32.83154297 41.69262695 C37.40362416 52.41527976 38.60719152 63.25392663 38.4375 74.8125 C38.428396 76.06329346 38.41929199 77.31408691 38.40991211 78.6027832 C38.0346115 106.993277 38.0346115 106.993277 35.125 112.8125 C33.05859375 113.6640625 33.05859375 113.6640625 30.5625 114.4375 C29.73621094 114.69789063 28.90992188 114.95828125 28.05859375 115.2265625 C27.42050781 115.41992188 26.78242188 115.61328125 26.125 115.8125 C25.77888672 114.44931641 25.77888672 114.44931641 25.42578125 113.05859375 C17.69104482 83.25081502 5.46685566 60.11150861 -18.9609375 40.703125 C-21.88698442 39.34161746 -23.68132485 39.28685771 -26.875 39.8125 C-29.06452381 41.7746962 -30.78071727 43.56796737 -32.625 45.8125 C-33.68257257 47.01866119 -34.74511111 48.22048575 -35.8125 49.41796875 C-36.33328125 50.00368652 -36.8540625 50.5894043 -37.390625 51.19287109 C-47.91621036 62.67753117 -64.52610362 70.60958707 -79.875 72.8125 C-82.43691907 72.91214353 -84.97725237 72.97255401 -87.5390625 72.98828125 C-89.00522304 73.01145769 -90.47136896 73.0355741 -91.9375 73.06054688 C-94.22634035 73.09575602 -96.51463156 73.12508528 -98.80371094 73.13842773 C-101.02864781 73.15389852 -103.25203556 73.19406234 -105.4765625 73.23828125 C-106.50011337 73.23541862 -106.50011337 73.23541862 -107.54434204 73.23249817 C-110.64471412 73.31225904 -112.63661636 73.66140391 -115.27197266 75.33178711 C-117.49887441 78.77795657 -117.68777219 82.08684506 -117.921875 86.078125 C-117.98280334 86.87152283 -118.04373169 87.66492065 -118.10650635 88.48236084 C-118.29652142 91.00816184 -118.46107518 93.53488497 -118.625 96.0625 C-118.7496253 97.77876841 -118.87590856 99.4949173 -119.00390625 101.2109375 C-119.31350201 105.41031554 -119.60028167 109.61070206 -119.875 113.8125 C-126.17531419 113.89032169 -130.95339798 112.75932806 -136.875 110.8125 C-138.51617627 100.56034191 -139.24780877 90.55540857 -139.24560547 80.17895508 C-139.24999118 77.87962314 -139.28652626 75.58220032 -139.32421875 73.28320312 C-139.42610763 60.04029951 -137.47877758 47.22670563 -131.0625 35.4375 C-130.54320923 34.4462915 -130.54320923 34.4462915 -130.01342773 33.43505859 C-119.15889435 13.13522039 -102.00060537 -2.82465728 -80.125 -10.50390625 C-76.72073914 -11.49803846 -73.33008757 -12.38895573 -69.875 -13.1875 C-69.18317627 -13.36337646 -68.49135254 -13.53925293 -67.77856445 -13.72045898 C-44.62320908 -19.36804539 -19.61796102 -12.84988279 0 0 Z " fill="#C1674F" transform="translate(230.875,36.1875)"/>
<path d="M0 0 C5.28 1.98 10.56 3.96 16 6 C27.4385625 8.82750983 39.11129961 9.02176457 50.6328125 6.4375 C53.13977012 5.9741679 55.45624621 5.97042761 58 6 C58.00238835 6.63353205 58.00477671 7.26706409 58.00723743 7.91979408 C58.06640572 23.3439492 58.14196736 38.76792407 58.23571491 54.19190407 C58.28065658 61.65087088 58.32007495 69.10979012 58.34643555 76.56884766 C58.36942889 83.07111608 58.40284171 89.57323376 58.44870156 96.07538259 C58.47261597 99.51738613 58.49135633 102.95924054 58.49761391 106.40132523 C58.5047995 110.24639484 58.53525009 114.0910911 58.56762695 117.93603516 C58.56619186 119.07395508 58.56475677 120.211875 58.5632782 121.38427734 C58.63190032 127.13977182 59.0423656 130.92068277 62 136 C61.31603097 138.96386578 60.35147284 141.29705432 59 144 C39.53 144 20.06 144 0 144 C0 96.48 0 48.96 0 0 Z " fill="#E74C79" transform="translate(145,330)"/>
<path d="M0 0 C0.64876685 -0.00453111 1.2975337 -0.00906223 1.96596014 -0.01373065 C4.12603161 -0.02632643 6.28584939 -0.02475745 8.44595337 -0.02310181 C10.00034405 -0.02909004 11.55473177 -0.03589627 13.1091156 -0.04345703 C17.32198899 -0.06109322 21.53478108 -0.06581138 25.74768782 -0.0670886 C28.3820489 -0.068512 31.01638942 -0.07278513 33.65074539 -0.07808304 C42.84763141 -0.09657473 52.04445953 -0.10475464 61.24136353 -0.10317993 C69.80402804 -0.10197844 78.36644052 -0.12308445 86.92904127 -0.15466726 C94.28974793 -0.18084609 101.65037236 -0.19154657 109.01112521 -0.19026911 C113.40332382 -0.18975999 117.79529832 -0.19541546 122.18745041 -0.21662521 C126.31948092 -0.23603504 130.45107412 -0.23611355 134.58312035 -0.22159195 C136.0955755 -0.21950621 137.60805822 -0.22419077 139.12046623 -0.23631287 C148.12949522 -0.30381837 155.1876103 -0.1408235 162.31948853 6.01351929 C162.98851196 6.85076538 162.98851196 6.85076538 163.67105103 7.70492554 C164.36327759 8.53830444 164.36327759 8.53830444 165.06948853 9.38851929 C168.55617936 14.72959664 168.59783663 19.57613045 168.60244751 25.76425171 C168.61077103 26.7145224 168.61909454 27.66479309 168.62767029 28.64385986 C168.6517473 31.78274651 168.6605407 34.92142511 168.66714478 38.06039429 C168.67611451 40.2488969 168.68523641 42.4373989 168.69450378 44.62590027 C168.71099127 49.21483855 168.71869318 53.8037039 168.72158813 58.39266968 C168.72696436 64.25580227 168.76461473 70.11824345 168.8103323 75.98118114 C168.84016704 80.50325483 168.84731313 85.02516352 168.84831429 89.54732704 C168.85250563 91.70776846 168.86489603 93.86821087 168.88583183 96.02855492 C168.91287192 99.06075262 168.90788231 102.09136757 168.89541626 105.12362671 C168.91766769 106.4464994 168.91766769 106.4464994 168.94036865 107.7960968 C168.86286096 114.46055931 167.01533879 119.71474422 163.29605103 125.26742554 C159.16260669 129.22653659 154.91862901 131.39495732 149.17686462 131.38768005 C147.92117676 131.38974205 147.92117676 131.38974205 146.64012146 131.3918457 C145.72518417 131.38825043 144.81024689 131.38465515 143.86758423 131.38095093 C142.90154266 131.38109695 141.9355011 131.38124298 140.94018555 131.38139343 C137.7423784 131.38069594 134.54462927 131.37291116 131.34683228 131.36508179 C129.13151583 131.36321703 126.91619897 131.3617934 124.70088196 131.36079407 C118.86638249 131.35697347 113.03190786 131.34714705 107.19741821 131.33609009 C101.24527319 131.32586617 95.29312417 131.32129434 89.3409729 131.31625366 C77.65932135 131.3055244 65.97768825 131.28845343 54.29605103 131.26742554 C54.0721167 132.92656982 54.0721167 132.92656982 53.84365845 134.61923218 C52.54260818 143.28690681 47.90697367 151.52003257 41.08511353 157.06430054 C33.6953122 162.21997588 33.6953122 162.21997588 29.29605103 162.26742554 C25.88748943 159.77039962 24.5029016 158.12878836 23.51089478 153.99789429 C23.41937134 152.8287146 23.3278479 151.65953491 23.23355103 150.45492554 C22.31337844 142.26589033 22.31337844 142.26589033 18.29605103 135.26742554 C11.75122927 132.20176829 6.13345424 131.83405301 -0.99301147 131.82797241 C-7.63789814 131.66242111 -12.95826188 129.98185244 -17.76254272 125.23226929 C-18.44510132 124.22873413 -18.44510132 124.22873413 -19.14144897 123.20492554 C-19.85107788 122.19752319 -19.85107788 122.19752319 -20.57504272 121.16976929 C-22.38220629 118.12447981 -22.83087852 115.59163962 -22.85112 112.12614441 C-22.8582753 111.28375214 -22.8654306 110.44135986 -22.87280273 109.57344055 C-22.87549164 108.65237015 -22.87818054 107.73129974 -22.88095093 106.78231812 C-22.88752213 105.80961975 -22.89409332 104.83692139 -22.90086365 103.83474731 C-22.92059973 100.61048303 -22.93226073 97.38626536 -22.94223022 94.16195679 C-22.94630575 93.06040442 -22.95038128 91.95885204 -22.95458031 90.8239193 C-22.97544358 84.99218305 -22.98974352 79.16047034 -22.99911499 73.32870483 C-23.01017256 67.31074758 -23.04456457 61.29316077 -23.08428669 55.27533436 C-23.1104582 50.64355287 -23.11880739 46.01185952 -23.12239647 41.3800106 C-23.12726196 39.16210113 -23.13887483 36.94419557 -23.15743446 34.72635841 C-23.18183381 31.61711088 -23.18085897 28.50881998 -23.17391968 25.39950562 C-23.18672974 24.48855637 -23.19953979 23.57760712 -23.21273804 22.63905334 C-23.15967939 16.09448646 -21.80092125 10.70131521 -17.32736683 5.74108601 C-12.13273933 1.06562866 -6.80437583 0.01971828 0 0 Z M-11.4921875 15.38609314 C-13.19174157 19.42730118 -13.12310224 23.02590279 -13.09213257 27.3687439 C-13.09738953 28.27667191 -13.10264648 29.18459991 -13.10806274 30.12004089 C-13.12124697 33.11595963 -13.1125294 36.1113453 -13.10238647 39.10726929 C-13.10440784 41.1932536 -13.10731979 43.27923722 -13.11108398 45.36521912 C-13.11550535 49.73560316 -13.10908284 54.10580314 -13.09506226 58.47616577 C-13.07798122 64.07274774 -13.08780605 69.66889775 -13.10577965 75.26546383 C-13.11663151 79.57292421 -13.11316449 83.88028256 -13.10539627 88.18774605 C-13.1033976 90.25098281 -13.10584183 92.31422888 -13.11283493 94.37745476 C-13.12047117 97.26412278 -13.10881406 100.15009622 -13.09213257 103.03671265 C-13.09820526 103.88625519 -13.10427795 104.73579773 -13.11053467 105.61108398 C-13.05756638 110.5698305 -12.43119476 113.96142098 -9.70394897 118.26742554 C-5.41965036 122.01321712 -0.91823946 121.65478679 4.48355103 121.70492554 C20.04510928 122.23541641 20.04510928 122.23541641 26.11636353 127.99398804 C30.94506606 133.84908145 33.1008074 140.85691507 34.29605103 148.26742554 C40.83009508 142.6408876 43.16865909 135.36666698 45.38980103 127.21273804 C46.65746507 124.4916316 47.63531368 123.7395852 50.29605103 122.26742554 C53.44777986 121.81648497 56.57948509 121.86102538 59.75869751 121.88265991 C60.71685364 121.87728714 61.67500977 121.87191437 62.66220093 121.86637878 C64.74162721 121.85659875 66.82109431 121.85365731 68.90054131 121.85673523 C72.19151703 121.86120867 75.48195372 121.84722611 78.77287292 121.82833862 C85.7597568 121.79153381 92.74658447 121.77784241 99.73355103 121.76742554 C107.82629403 121.75535344 115.91877501 121.73384303 124.01140022 121.68742371 C127.25372173 121.67383655 130.49571347 121.67802762 133.73805237 121.68283081 C135.72670921 121.67349067 137.71536239 121.66332196 139.70401001 121.65219116 C140.60547256 121.65833939 141.50693512 121.66448761 142.43571472 121.67082214 C148.25901221 121.61355453 151.54690608 120.62383549 156.04605103 116.76742554 C159.19885602 112.98405954 158.45108752 108.10994961 158.45718384 103.46908569 C158.46214874 102.56959702 158.46711365 101.67010834 158.472229 100.74336243 C158.48684756 97.76439655 158.49365184 94.78548391 158.49917603 91.80648804 C158.50492737 89.73767088 158.51068511 87.66885374 158.51644897 85.60003662 C158.52695784 81.26064811 158.53280138 76.92127811 158.5362854 72.58187866 C158.54177235 67.02105492 158.56580525 61.46047577 158.59425735 55.89972878 C158.61287825 51.62578617 158.61808903 47.35190257 158.61962128 43.07792282 C158.62264916 41.02780189 158.63068222 38.97768202 158.64380646 36.92760086 C158.66085664 34.05972914 158.65898925 31.19245626 158.65249634 28.32455444 C158.66631851 27.05416069 158.66631851 27.05416069 158.68041992 25.75810242 C158.64749824 21.11730624 158.41904274 17.94870797 155.29605103 14.26742554 C150.98666638 10.91661395 148.20724082 9.76723436 142.76173401 9.76622009 C140.81653114 9.75146889 140.81653114 9.75146889 138.83203125 9.73641968 C137.40719339 9.74579032 135.98235818 9.75556958 134.55752563 9.76571655 C133.04752601 9.76193095 131.53752986 9.75642892 130.02754211 9.74934387 C125.93663482 9.73540448 121.84614881 9.74654764 117.755265 9.76305509 C113.4708072 9.77692406 109.1863734 9.7704435 104.90190125 9.766922 C97.70858993 9.76422162 90.51544564 9.77768155 83.32217407 9.8008728 C75.00827176 9.8274916 66.69464851 9.82922581 58.38071817 9.81748444 C50.37805422 9.80670258 42.37549111 9.81289627 34.37283516 9.82703972 C30.96902645 9.83279497 27.56529164 9.83272049 24.16148186 9.82797432 C20.15341726 9.82319931 16.14565798 9.83332771 12.13765144 9.85492897 C10.66749221 9.86048953 9.1973036 9.86096882 7.72714233 9.8559761 C5.71921625 9.85001262 3.71126052 9.86437643 1.7033844 9.87974548 C0.58013732 9.88217538 -0.54310976 9.88460527 -1.70039463 9.8871088 C-6.04842559 10.43766616 -8.68627304 12.06170438 -11.4921875 15.38609314 Z " fill="#284267" transform="translate(331.7039489746094,104.73257446289063)"/>
<path d="M0 0 C1.66191554 -0.0083016 1.66191554 -0.0083016 3.35740513 -0.0167709 C7.08329865 -0.03042321 10.80852764 -0.01538268 14.53440857 -0.00050354 C17.20006662 -0.00428503 19.86567973 -0.00963069 22.53132629 -0.01687622 C29.02765202 -0.03082029 35.52378357 -0.02324423 42.02010006 -0.00820064 C49.58166618 0.00864453 57.14318373 0.00545114 64.70476281 0.00170528 C78.19375304 -0.00417533 91.68264996 0.01000667 105.1716156 0.03465271 C118.26800534 0.05857886 131.36427043 0.06565539 144.4606781 0.05516052 C158.71495363 0.04375829 172.96917149 0.04181226 187.22344631 0.05625862 C188.7425508 0.0577845 190.26165531 0.05930485 191.78075981 0.06081963 C192.9019675 0.06195635 192.9019675 0.06195635 194.04582586 0.06311603 C199.31987163 0.06786387 204.5938917 0.06600392 209.86793709 0.06175423 C216.29218087 0.05683407 222.71630666 0.06278284 229.14052338 0.08264852 C232.41989686 0.09253864 235.69905308 0.09600526 238.97844124 0.08975601 C242.5287911 0.083837 246.07860484 0.09624361 249.62890625 0.11352539 C250.67188623 0.10751535 251.71486622 0.1015053 252.78945166 0.09531313 C254.21071149 0.10797304 254.21071149 0.10797304 255.66068363 0.12088871 C256.48060986 0.12191784 257.30053608 0.12294697 258.14530855 0.12400728 C260.77595154 0.59525008 261.65995503 1.38473281 263.2509613 3.50120544 C263.68455505 6.27854919 263.68455505 6.27854919 263.6884613 9.43870544 C263.71746521 10.9991156 263.71746521 10.9991156 263.74705505 12.59104919 C263.2509613 15.50120544 263.2509613 15.50120544 261.88897705 17.6513443 C257.7072106 20.58373289 253.53494358 20.05209631 248.5466156 20.00914001 C246.89188374 20.01849996 246.89188374 20.01849996 245.20372295 20.02804899 C241.49399354 20.04404934 237.78491476 20.03134663 234.07518005 20.01878357 C231.4209958 20.02420156 228.76685692 20.03117721 226.11268616 20.0400238 C219.64410732 20.0578255 213.17571396 20.05396179 206.70712781 20.04237324 C201.45075789 20.03334564 196.19444002 20.03211199 190.93806458 20.03646851 C190.19041389 20.03708144 189.44276321 20.03769437 188.67245644 20.03832588 C187.15369549 20.03960476 185.63493455 20.04090161 184.11617362 20.04221624 C169.86929323 20.05362687 155.62251572 20.0405008 141.37565219 20.01901478 C129.14686255 20.00114333 116.91822477 20.0042473 104.68943787 20.02268982 C90.49411041 20.04408805 76.29887317 20.05252819 62.10353184 20.04024076 C60.59030725 20.03896655 59.07708265 20.03770906 57.56385803 20.03646851 C56.81929106 20.0358514 56.07472409 20.0352343 55.30759448 20.0345985 C50.05654754 20.03114244 44.80555774 20.03697942 39.55451965 20.04638672 C33.15663027 20.05759648 26.75893723 20.05458841 20.36107039 20.03326374 C17.09568826 20.02273923 13.83070197 20.02080207 10.56531143 20.03186035 C7.02831308 20.04273682 3.49224551 20.02914661 -0.04469299 20.00914001 C-1.59895729 20.02252434 -1.59895729 20.02252434 -3.18462086 20.03617907 C-10.10099136 19.95991743 -10.10099136 19.95991743 -13.38485718 17.63547516 C-15.11131277 14.9344256 -15.28412913 13.19443452 -15.2490387 10.00120544 C-15.2593512 9.06276794 -15.2696637 8.12433044 -15.2802887 7.15745544 C-13.64959697 -0.99600319 -6.78051426 -0.06257692 0 0 Z " fill="#A4E1FA" transform="translate(227.74903869628906,471.49879455566406)"/>
<path d="M0 0 C0.66 0 1.32 0 2 0 C11.58968524 12.93443196 17.35495404 27.96670543 17.22705078 44.08789062 C17.22734283 45.06441589 17.22763489 46.04094116 17.22793579 47.04705811 C17.22655097 50.25021488 17.21102977 53.45313424 17.1953125 56.65625 C17.19157936 58.88683953 17.18873381 61.1174307 17.18673706 63.34802246 C17.17912435 69.20056741 17.15949617 75.05301207 17.1373291 80.90551758 C17.11681973 86.88491459 17.10772447 92.8643279 17.09765625 98.84375 C17.07624801 110.562551 17.04108515 122.28125145 17 134 C6.77 134 -3.46 134 -14 134 C-14.09061991 120.53423007 -14.16389982 107.06866499 -14.20724869 93.60265827 C-14.22806125 87.34884053 -14.25626301 81.09524349 -14.30175781 74.84155273 C-14.34544151 68.79851826 -14.36918465 62.75569515 -14.37950897 56.71251488 C-14.38686002 54.41499699 -14.4012142 52.11748975 -14.42292023 49.82006264 C-14.55581098 35.16230846 -14.41168126 22.26397948 -6.4375 9.4375 C-5.56931641 8.01244141 -5.56931641 8.01244141 -4.68359375 6.55859375 C-1.63290165 1.92239114 -1.63290165 1.92239114 0 0 Z " fill="#5F89F3" transform="translate(35,340)"/>
<path d="M0 0 C0.98291016 0.00966797 1.96582031 0.01933594 2.97851562 0.02929688 C4.00267578 0.05443359 5.02683594 0.07957031 6.08203125 0.10546875 C7.11779297 0.11900391 8.15355469 0.13253906 9.22070312 0.14648438 C11.77916824 0.18185486 14.33658905 0.23121331 16.89453125 0.29296875 C16.56453125 1.28296875 16.23453125 2.27296875 15.89453125 3.29296875 C15.80101608 5.29029295 15.76823789 7.29064905 15.76754761 9.29016113 C15.76331787 11.17040733 15.76331787 11.17040733 15.75900269 13.08863831 C15.76094705 14.48031631 15.76299522 15.87199416 15.76513672 17.26367188 C15.76378191 18.7272089 15.76200152 20.19074558 15.75982666 21.65428162 C15.75526187 25.63145977 15.75703798 29.60861202 15.76020575 33.58579063 C15.76273425 37.74440965 15.76039043 41.90302641 15.75881958 46.06164551 C15.75699933 53.04582111 15.75940043 60.02998615 15.76416016 67.01416016 C15.7696025 75.09336522 15.76783974 83.17254506 15.76233375 91.25174952 C15.75779853 98.18343653 15.75715408 105.11511594 15.75977242 112.04680395 C15.76133294 116.18896746 15.7615351 120.33111911 15.75823593 124.47328186 C15.7553513 128.36710354 15.75734385 132.26089262 15.76313019 136.15471077 C15.7644546 137.58540353 15.76406906 139.01609902 15.76186752 140.4467907 C15.75914358 142.3964516 15.76316173 144.34611849 15.76754761 146.29577637 C15.76792463 147.38789177 15.76830166 148.48000717 15.76869011 149.60521698 C15.77736854 152.39400189 15.77736854 152.39400189 16.89453125 155.29296875 C13.29063461 155.40897879 9.68721658 155.48015283 6.08203125 155.54296875 C5.05787109 155.57648438 4.03371094 155.61 2.97851562 155.64453125 C1.99560547 155.65742188 1.01269531 155.6703125 0 155.68359375 C-0.90596924 155.70454102 -1.81193848 155.72548828 -2.74536133 155.74707031 C-5.10546875 155.29296875 -5.10546875 155.29296875 -6.72916603 153.64455509 C-8.48210044 150.64944612 -8.48280556 148.67660616 -8.48641968 145.21348572 C-8.49487915 143.96702774 -8.50333862 142.72056976 -8.51205444 141.43634033 C-8.50622175 140.05773795 -8.50007726 138.67913686 -8.49365234 137.30053711 C-8.49771802 135.84670111 -8.50305988 134.39286819 -8.50958252 132.93904114 C-8.52326132 128.99284439 -8.51795555 125.04688289 -8.50844526 121.10068202 C-8.50085301 116.9727596 -8.50789293 112.84485741 -8.51260376 108.7169342 C-8.51806197 101.78578065 -8.51086736 94.85472298 -8.49658203 87.92358398 C-8.48024892 79.90620462 -8.48554849 71.88905404 -8.50206125 63.8716802 C-8.5156666 56.99091027 -8.51760064 50.11020929 -8.50974524 43.22943026 C-8.5050643 39.11854682 -8.50445551 35.00777101 -8.51435471 30.89689445 C-8.52300854 27.03333106 -8.51703175 23.1700633 -8.49967194 19.30653191 C-8.49569885 17.88713065 -8.49685517 16.46770459 -8.50345993 15.04831314 C-8.51163207 13.1140404 -8.4995768 11.1797134 -8.48641968 9.24546814 C-8.4852886 8.1620259 -8.48415752 7.07858366 -8.48299217 5.96230984 C-8.10546875 3.29296875 -8.10546875 3.29296875 -6.72916603 1.44222355 C-4.43590118 -0.18095194 -2.78820781 -0.04835042 0 0 Z " fill="#89CED3" transform="translate(221.10546875,306.70703125)"/>
<path d="M0 0 C5.445 1.485 5.445 1.485 11 3 C27.38896619 6.49876806 46.01043478 7.27380177 62.046875 1.97265625 C65.02760552 0.99090771 67.89756462 0.44121461 71 0 C71.23303424 3.56139065 71.37461781 7.12082446 71.5 10.6875 C71.60054687 12.19860352 71.60054687 12.19860352 71.703125 13.74023438 C71.7810613 16.69207186 71.75607896 19.14200455 71 22 C68.61127984 24.38838659 66.02328498 25.57842997 63 27 C58.85675764 31.5442013 58.75232429 36.27809321 58.4375 42.1875 C58.37272461 43.31188477 58.37272461 43.31188477 58.30664062 44.45898438 C58.20077315 46.30578375 58.0999024 48.15286834 58 50 C43.30286747 55.00327916 29.00995982 55.59680019 14 51 C9.38 48.69 4.76 46.38 0 44 C0 29.48 0 14.96 0 0 Z " fill="#D6AC83" transform="translate(145,275)"/>
<path d="M0 0 C0.86560547 0.00902344 1.73121094 0.01804687 2.62304688 0.02734375 C4.72798779 0.05060277 6.83278342 0.08645992 8.9375 0.125 C8.9375 0.455 8.9375 0.785 8.9375 1.125 C8.19628906 1.09277344 7.45507812 1.06054688 6.69140625 1.02734375 C-10.15098432 1.21287804 -25.03321278 12.49444198 -36.8046875 23.74609375 C-50.34156364 37.92072545 -62.34873162 59.35624299 -62.06274414 79.4609375 C-62.02179337 80.87334071 -61.95693965 82.28531069 -61.86499023 83.6953125 C-61.77734375 85.65625 -61.77734375 85.65625 -62.0625 89.125 C-62.70678955 89.68606445 -63.3510791 90.24712891 -64.01489258 90.82519531 C-66.89059401 94.0550877 -66.86648068 97.24945629 -67.109375 101.390625 C-67.17030334 102.18402283 -67.23123169 102.97742065 -67.29400635 103.79486084 C-67.48402142 106.32066184 -67.64857518 108.84738497 -67.8125 111.375 C-67.9371253 113.09126841 -68.06340856 114.8074173 -68.19140625 116.5234375 C-68.50100201 120.72281554 -68.78778167 124.92320206 -69.0625 129.125 C-75.36281419 129.20282169 -80.14089798 128.07182806 -86.0625 126.125 C-87.70367627 115.87284191 -88.43530877 105.86790857 -88.43310547 95.49145508 C-88.43749118 93.19212314 -88.47402626 90.89470032 -88.51171875 88.59570312 C-88.61360763 75.35279951 -86.66627758 62.53920563 -80.25 50.75 C-79.73070923 49.7587915 -79.73070923 49.7587915 -79.20092773 48.74755859 C-68.34639435 28.44772039 -51.18810537 12.48784272 -29.3125 4.80859375 C-25.90823914 3.81446154 -22.51758757 2.92354427 -19.0625 2.125 C-18.38227783 1.94694824 -17.70205566 1.76889648 -17.0012207 1.58544922 C-11.2610117 0.15496569 -5.89885371 -0.11898386 0 0 Z " fill="#9C4835" transform="translate(180.0625,20.875)"/>
<path d="M0 0 C2.96175123 0.61277612 4.38058783 1.25372522 7 3 C9.21389829 3.60103341 11.44602579 4.13675809 13.6875 4.625 C14.86699219 4.88539063 16.04648438 5.14578125 17.26171875 5.4140625 C18.16535156 5.60742188 19.06898437 5.80078125 20 6 C19.34 6.66 18.68 7.32 18 8 C17.06924207 13.82264846 17.73231846 19.06651522 20.671875 24.1796875 C24.88878401 29.95933338 29.09098491 32.23353736 36 34 C36.01417969 34.88558594 36.02835938 35.77117187 36.04296875 36.68359375 C36.44344885 47.08525268 38.67630232 56.16761246 42 66 C42.28617188 66.91394531 42.57234375 67.82789063 42.8671875 68.76953125 C49.92089088 89.02373666 67.26517612 104.96608199 85.953125 114.5078125 C87.94144298 115.40193033 89.9661302 116.21499762 92 117 C92 117.33 92 117.66 92 118 C73.65701827 119.52153765 54.72214303 109.50614478 41 98 C25.57543528 84.63204391 15.92616534 66.18827248 13 46 C12.78989954 42.54255738 12.62718825 39.10827778 12.6015625 35.64453125 C12.25409647 32.80065574 12.25409647 32.80065574 9.68359375 31.2578125 C8.35521484 30.63519531 8.35521484 30.63519531 7 30 C6.37996094 29.66097656 5.75992188 29.32195312 5.12109375 28.97265625 C4.56550781 28.67230469 4.00992188 28.37195313 3.4375 28.0625 C-0.57607396 25.75033239 -3.25658764 23.59833658 -5.25 19.3125 C-7.49903163 9.37927695 -7.49903163 9.37927695 -4.65625 4.8671875 C-3.17637329 3.14299152 -1.66677188 1.54275612 0 0 Z " fill="#CAA179" transform="translate(84,153)"/>
<path d="M0 0 C0.85393341 -0.00511093 1.70786682 -0.01022186 2.587677 -0.01548767 C5.41399111 -0.02940259 8.24006193 -0.02842566 11.06640625 -0.02612305 C13.02791434 -0.03000857 14.98942159 -0.03434294 16.95092773 -0.03910828 C21.06334154 -0.04657431 25.17566951 -0.04627616 29.28808594 -0.04101562 C34.5644011 -0.03521658 39.84036574 -0.05216067 45.11662292 -0.0753603 C49.16746076 -0.09007312 53.21821367 -0.09097276 57.26907349 -0.08785057 C59.21477961 -0.08836489 61.16049036 -0.09362327 63.10617065 -0.10366249 C65.82361828 -0.11596391 68.54037637 -0.10927361 71.2578125 -0.09765625 C72.06517853 -0.10529999 72.87254456 -0.11294373 73.70437622 -0.12081909 C79.10125625 -0.06967932 79.10125625 -0.06967932 81.66381836 1.60261536 C82.62890625 3.2746582 82.62890625 3.2746582 82.44140625 6.3996582 C82.17328125 7.3484082 81.90515625 8.2971582 81.62890625 9.2746582 C78.38619522 10.89601372 74.82665274 10.4218865 71.26367188 10.41992188 C70.39852463 10.42328049 69.53337738 10.4266391 68.64201355 10.43009949 C65.77304665 10.43962361 62.90413799 10.44155322 60.03515625 10.44262695 C58.04740372 10.4458381 56.05965144 10.44920206 54.07189941 10.45271301 C49.90225679 10.45870765 45.73263491 10.46055253 41.56298828 10.45996094 C36.20927822 10.4598592 30.85570045 10.47352185 25.50202179 10.49073315 C21.39633569 10.50182773 17.29068186 10.50388094 13.1849823 10.50335121 C11.21054121 10.50453477 9.23609938 10.50897745 7.26167297 10.51668358 C4.50573331 10.52643397 1.75008454 10.52362534 -1.00585938 10.51757812 C-1.82774246 10.52319763 -2.64962555 10.52881714 -3.49641418 10.53460693 C-9.1427772 10.50297475 -9.1427772 10.50297475 -11.37109375 8.2746582 C-11.68359375 5.2746582 -11.68359375 5.2746582 -11.37109375 2.2746582 C-7.54480967 -0.27619785 -4.43490273 -0.01360858 0 0 Z " fill="#2B4468" transform="translate(368.37109375,132.725341796875)"/>
<path d="M0 0 C2.5 0.25 2.5 0.25 4.5 2.25 C5.0784041 8.47197549 3.5778094 14.16364461 2.125 20.1875 C1.86750977 21.27619385 1.61001953 22.3648877 1.34472656 23.48657227 C0.58704439 26.66462803 -0.18052537 29.84008828 -0.95471191 33.01416016 C-1.3372446 34.58265548 -1.71892557 36.15135866 -2.09997559 37.72021484 C-3.41541355 43.13609779 -4.74057924 48.54948252 -6.07696533 53.9602356 C-6.52517416 55.77646295 -6.97175193 57.59309361 -7.41668701 59.41012573 C-8.04776996 61.98199602 -8.68680847 64.55175881 -9.328125 67.12109375 C-9.51752655 67.89811646 -9.7069281 68.67513916 -9.90206909 69.47570801 C-10.75569426 72.86207295 -11.54356584 75.31534876 -13.5 78.25 C-16.5 78.5625 -16.5 78.5625 -19.5 78.25 C-20.16 77.59 -20.82 76.93 -21.5 76.25 C-21.12751586 69.31765625 -19.55763369 62.77842199 -17.875 56.0625 C-17.33350754 53.85965194 -16.79319704 51.65651309 -16.25390625 49.453125 C-15.96918457 48.29232422 -15.68446289 47.13152344 -15.39111328 45.93554688 C-14.45435261 42.06120738 -13.54747889 38.18099002 -12.65234375 34.296875 C-12.49864319 33.63108932 -12.34494263 32.96530365 -12.18658447 32.27934265 C-11.43702419 29.02989073 -10.69088099 25.77972076 -9.94873047 22.52856445 C-4.85933825 0.48593383 -4.85933825 0.48593383 0 0 Z " fill="#2C476C" transform="translate(360.5,349.75)"/>
<path d="M0 0 C0.71884369 -0.00350464 1.43768738 -0.00700928 2.17831421 -0.01062012 C4.56037991 -0.01944059 6.9421499 -0.0135873 9.32421875 -0.00683594 C10.9756679 -0.0081825 12.62711666 -0.01012296 14.27856445 -0.01263428 C17.74206308 -0.01558596 21.20545865 -0.01128651 24.66894531 -0.00195312 C29.11467186 0.00944148 33.56015695 0.00288224 38.00587463 -0.00909805 C41.41672596 -0.01631548 44.82751977 -0.01402928 48.2383728 -0.00884247 C49.87787911 -0.00750564 51.5173906 -0.00915483 53.15689087 -0.01380157 C55.44588101 -0.01886494 57.73447683 -0.01115956 60.0234375 0 C61.97963013 0.00238678 61.97963013 0.00238678 63.9753418 0.00482178 C67.01171875 0.25878906 67.01171875 0.25878906 69.01171875 2.25878906 C69.36008775 4.9760673 69.46317945 6.58006596 67.92358398 8.89468384 C65.03553376 10.95529163 62.62678701 10.64032746 59.109375 10.64697266 C58.41149872 10.65222961 57.71362244 10.65748657 56.99459839 10.66290283 C54.68757755 10.67610752 52.38124662 10.66736361 50.07421875 10.65722656 C48.4714342 10.65924718 46.86865054 10.66215851 45.26586914 10.66592407 C41.90664925 10.67034804 38.54766865 10.66391419 35.18847656 10.64990234 C30.88065036 10.63281022 26.57338485 10.64265104 22.26557922 10.66061974 C18.95588957 10.67145572 15.64633305 10.66801213 12.3366394 10.66023636 C10.74819879 10.65823383 9.15974612 10.66069549 7.57131958 10.66767502 C5.35190779 10.6752867 3.13340641 10.66369052 0.9140625 10.64697266 C-0.34929932 10.64458588 -1.61266113 10.6421991 -2.91430664 10.63973999 C-5.98828125 10.25878906 -5.98828125 10.25878906 -7.90014648 8.89468384 C-9.43974195 6.58006596 -9.33665025 4.9760673 -8.98828125 2.25878906 C-6.10148036 -0.62801183 -4.04173892 0.00493139 0 0 Z " fill="#314A69" transform="translate(409.98828125,157.7412109375)"/>
<path d="M0 0 C2.69555664 0.87133789 2.69555664 0.87133789 3.69555664 1.87133789 C4.06132459 5.33583864 4.15651393 7.20918053 2.13500977 10.11303711 C1.42280273 10.79382324 0.7105957 11.47460938 -0.02319336 12.17602539 C-0.79018555 12.92368164 -1.55717773 13.67133789 -2.34741211 14.44165039 C-3.15823242 15.20219727 -3.96905273 15.96274414 -4.80444336 16.74633789 C-5.61526367 17.53008789 -6.42608398 18.31383789 -7.26147461 19.12133789 C-9.26297585 21.05219791 -11.2770996 22.96769001 -13.30444336 24.87133789 C-11.96318645 27.89377893 -10.51572689 29.85233483 -8.08178711 32.07836914 C-7.15076172 32.95912109 -7.15076172 32.95912109 -6.20092773 33.85766602 C-4.89866717 35.07163773 -3.58876226 36.27746234 -2.27124023 37.47485352 C0.96636999 40.56422768 2.53216623 42.28108251 3.75415039 46.69555664 C3.69555664 49.87133789 3.69555664 49.87133789 1.69555664 51.87133789 C-3.94405504 51.70890572 -6.60290295 50.33269848 -10.54663086 46.39086914 C-11.46702148 45.47370117 -12.38741211 44.5565332 -13.33569336 43.61157227 C-13.80233398 43.13034912 -14.26897461 42.64912598 -14.74975586 42.15332031 C-16.177694 40.68563594 -17.63276242 39.24965421 -19.09350586 37.81469727 C-25.92607494 30.90009875 -25.92607494 30.90009875 -27.39111328 26.91674805 C-27.27069832 22.68560386 -25.25009464 20.80729438 -22.36303711 18.00024414 C-21.84314713 17.47365707 -21.32325714 16.94707001 -20.78761292 16.40452576 C-19.68552441 15.29768124 -18.57457552 14.19959833 -17.45556641 13.10986328 C-15.74706609 11.43884823 -14.07912758 9.73377931 -12.41186523 8.02172852 C-11.33532641 6.94981549 -10.25661807 5.88007602 -9.17553711 4.81274414 C-8.67839706 4.30143448 -8.18125702 3.79012482 -7.66905212 3.26332092 C-4.96977703 0.68728859 -3.79784407 -0.1478732 0 0 Z " fill="#2D486D" transform="translate(332.304443359375,363.128662109375)"/>
<path d="M0 0 C1.47533203 0.02707031 1.47533203 0.02707031 2.98046875 0.0546875 C5.40463783 0.10175874 7.82682059 0.16749258 10.25 0.25 C9.92 1.24 9.59 2.23 9.25 3.25 C9.25 8.2 9.25 13.15 9.25 18.25 C91.75 18.25 174.25 18.25 259.25 18.25 C259.25 18.58 259.25 18.91 259.25 19.25 C224.92170537 19.34150799 190.59343854 19.41201452 156.26504834 19.45426132 C152.21445911 19.45926429 148.16387012 19.46444156 144.11328125 19.46972656 C142.90365613 19.47130043 142.90365613 19.47130043 141.66959414 19.47290608 C128.60340913 19.49032261 115.53729434 19.52186714 102.47115102 19.55861118 C89.06918902 19.59598594 75.66726386 19.6182285 62.26525187 19.62635398 C53.99204701 19.63184897 45.71904062 19.64921903 37.44589683 19.68166587 C31.77662968 19.70277102 26.10746549 19.70920916 20.43816188 19.70400551 C17.16467994 19.70143742 13.89161984 19.70760925 10.61818314 19.7268219 C7.07226212 19.74661968 3.52720167 19.74197576 -0.01873779 19.73101807 C-1.05764247 19.74266943 -2.09654714 19.7543208 -3.16693377 19.76632524 C-10.10182767 19.7080944 -10.10182767 19.7080944 -13.38750076 17.385952 C-15.11111466 14.68389063 -15.2850844 12.94268026 -15.25 9.75 C-15.2603125 8.8115625 -15.270625 7.873125 -15.28125 6.90625 C-14.75 4.25 -14.75 4.25 -13.390625 1.921875 C-9.15916158 -0.75721723 -4.88961578 -0.16928097 0 0 Z " fill="#7FBCD4" transform="translate(227.75,471.75)"/>
<path d="M0 0 C7.15329889 0.24793285 10.61763469 4.82544881 15.36987305 9.66308594 C16.80713222 11.11956045 18.27129108 12.54432014 19.74023438 13.96875 C20.65740234 14.88914062 21.57457031 15.80953125 22.51953125 16.7578125 C23.35589111 17.5945752 24.19225098 18.43133789 25.05395508 19.29345703 C27.50921573 22.70821298 28.08958669 24.79495211 28 29 C26.09741211 31.90600586 26.09741211 31.90600586 23.27734375 34.71484375 C22.77964981 35.21544815 22.28195587 35.71605255 21.7691803 36.23182678 C20.71517849 37.28251764 19.65128407 38.32336605 18.57836914 39.35473633 C16.94206481 40.93309683 15.34639564 42.54549521 13.75195312 44.16601562 C12.72095957 45.18453316 11.68782293 46.20088687 10.65234375 47.21484375 C9.71382568 48.13386475 8.77530762 49.05288574 7.80834961 49.99975586 C5 52 5 52 1.77172852 52.48657227 C0.85705811 52.32600342 -0.0576123 52.16543457 -1 52 C-3 49 -3 49 -2.86352539 46.57543945 C-1.82710831 43.48435555 -0.51631934 42.05657655 1.81640625 39.79296875 C2.58017578 39.04208984 3.34394531 38.29121094 4.13085938 37.51757812 C4.93330078 36.74865234 5.73574219 35.97972656 6.5625 35.1875 C7.36880859 34.39923828 8.17511719 33.61097656 9.00585938 32.79882812 C10.99520169 30.85657084 12.99327271 28.92426339 15 27 C13.58081124 23.72832034 11.87595482 21.70119648 9.26953125 19.28515625 C8.54958984 18.59873047 7.82964844 17.91230469 7.08789062 17.20507812 C5.56668118 15.77266031 4.03795232 14.34818764 2.50195312 12.93164062 C1.78587891 12.24392578 1.06980469 11.55621094 0.33203125 10.84765625 C-0.33078857 10.22898682 -0.9936084 9.61031738 -1.67651367 8.97290039 C-3 7 -3 7 -2.83325195 4.38452148 C-2 2 -2 2 0 0 Z " fill="#2B466B" transform="translate(371,363)"/>
<path d="M0 0 C1.09453491 -0.00630432 2.18906982 -0.01260864 3.31677246 -0.019104 C5.09646423 -0.01303131 5.09646423 -0.01303131 6.91210938 -0.00683594 C8.1253186 -0.00874939 9.33852783 -0.01066284 10.58850098 -0.01263428 C13.15747281 -0.01399728 15.7264515 -0.01029286 18.29541016 -0.00195312 C22.23941441 0.00874446 26.18296313 -0.00184487 30.12695312 -0.01464844 C32.61783955 -0.01332686 35.1087257 -0.01076452 37.59960938 -0.00683594 C38.78607056 -0.0108844 39.97253174 -0.01493286 41.19494629 -0.019104 C42.83674866 -0.00964752 42.83674866 -0.00964752 44.51171875 0 C45.96161194 0.00238678 45.96161194 0.00238678 47.4407959 0.00482178 C49.75585938 0.25878906 49.75585938 0.25878906 51.75585938 2.25878906 C52.00585938 5.25878906 52.00585938 5.25878906 51.75585938 8.25878906 C49.18526312 10.82938532 48.1914353 10.51604656 44.61938477 10.53344727 C43.5480983 10.54297928 42.47681183 10.55251129 41.37306213 10.56233215 C40.21161179 10.56142075 39.05016144 10.56050934 37.85351562 10.55957031 C36.66487411 10.56385544 35.4762326 10.56814056 34.25157166 10.57255554 C31.73388304 10.57830725 29.21617779 10.57879295 26.69848633 10.57446289 C22.83776598 10.57130494 18.9778129 10.59474589 15.1171875 10.62011719 C12.67513118 10.62239021 10.23307279 10.62309366 7.79101562 10.62207031 C6.63158951 10.63128006 5.47216339 10.64048981 4.27760315 10.64997864 C3.20316452 10.64374985 2.12872589 10.63752106 1.02172852 10.63110352 C0.07511856 10.63173294 -0.87149139 10.63236237 -1.8467865 10.63301086 C-4.24414062 10.25878906 -4.24414062 10.25878906 -6.0537262 8.89567566 C-7.72766732 6.59391274 -7.60006122 5.03496973 -7.24414062 2.25878906 C-4.65227227 -0.3330793 -3.60587435 0.0059359 0 0 Z " fill="#2A4468" transform="translate(394.244140625,177.7412109375)"/>
<path d="M0 0 C3 0.25 3 0.25 5 2.25 C5.25396729 4.48913574 5.25396729 4.48913574 5.25878906 7.31054688 C5.26509338 8.36504028 5.27139771 9.41953369 5.27789307 10.50598145 C5.2738446 11.64869507 5.26979614 12.79140869 5.265625 13.96875 C5.26753845 15.13756714 5.2694519 16.30638428 5.27142334 17.51062012 C5.27278626 19.98543513 5.26908241 22.46025726 5.26074219 24.93505859 C5.25004446 28.73421205 5.26063418 32.53289259 5.2734375 36.33203125 C5.27211592 38.73177188 5.26955357 41.13151222 5.265625 43.53125 C5.26967346 44.67396362 5.27372192 45.81667725 5.27789307 46.99401855 C5.27158875 48.04851196 5.26528442 49.10300537 5.25878906 50.18945312 C5.25640228 51.58605164 5.25640228 51.58605164 5.25396729 53.01086426 C5 55.25 5 55.25 3 57.25 C0 57.5625 0 57.5625 -3 57.25 C-5.19238987 53.9614152 -5.25212343 52.9843244 -5.25878906 49.16772461 C-5.26509338 48.13332748 -5.27139771 47.09893036 -5.27789307 46.03318787 C-5.2738446 44.91750931 -5.26979614 43.80183075 -5.265625 42.65234375 C-5.26753845 41.5071376 -5.2694519 40.36193146 -5.27142334 39.18202209 C-5.27278494 36.76026184 -5.26909027 34.33849429 -5.26074219 31.91674805 C-5.25003281 28.19889027 -5.26064365 24.48151466 -5.2734375 20.76367188 C-5.27211609 18.41406143 -5.26955409 16.06445128 -5.265625 13.71484375 C-5.26967346 12.59714096 -5.27372192 11.47943817 -5.27789307 10.3278656 C-5.27158875 9.29662064 -5.26528442 8.26537567 -5.25878906 7.20288086 C-5.25719788 6.29259628 -5.25560669 5.38231171 -5.25396729 4.44444275 C-4.83073142 0.78740927 -3.53377263 0.29448105 0 0 Z " fill="#284269" transform="translate(114,343.75)"/>
<path d="M0 0 C0.91112045 -0.00953201 1.82224091 -0.01906403 2.76097107 -0.02888489 C4.24066124 -0.02751778 4.24066124 -0.02751778 5.75024414 -0.02612305 C6.76131729 -0.03040817 7.77239044 -0.0346933 8.81410217 -0.03910828 C10.95516205 -0.0448584 13.09624147 -0.04534684 15.23730469 -0.04101562 C18.51864882 -0.03785792 21.79908986 -0.06129893 25.08032227 -0.08666992 C27.15779508 -0.08894301 29.23527033 -0.08964637 31.31274414 -0.08862305 C32.29718002 -0.09783279 33.28161591 -0.10704254 34.29588318 -0.11653137 C35.21015579 -0.11030258 36.12442841 -0.10407379 37.06640625 -0.09765625 C38.27314247 -0.09860039 38.27314247 -0.09860039 39.5042572 -0.0995636 C42.12255204 0.36843545 43.01045241 1.17286634 44.59790039 3.2746582 C44.91040039 5.8371582 44.91040039 5.8371582 44.59790039 8.2746582 C42.12472747 10.74783112 41.40199337 10.53068613 37.99633789 10.54931641 C36.56475342 10.56361443 36.56475342 10.56361443 35.10424805 10.57820129 C34.07090332 10.57728989 33.03755859 10.57637848 31.97290039 10.57543945 C30.38614502 10.58186714 30.38614502 10.58186714 28.76733398 10.58842468 C26.5279207 10.59417476 24.28848874 10.59466328 22.04907227 10.59033203 C18.61190136 10.58717108 15.17558984 10.6106269 11.73852539 10.63598633 C9.56665148 10.63825904 7.39477525 10.63896295 5.22290039 10.63793945 C4.18955566 10.6471492 3.15621094 10.65635895 2.09155273 10.66584778 C1.13716309 10.65961899 0.18277344 10.6533902 -0.80053711 10.64697266 C-1.64277832 10.64760208 -2.48501953 10.64823151 -3.3527832 10.64888 C-4.02905762 10.52538681 -4.70533203 10.40189362 -5.40209961 10.2746582 C-7.40209961 7.2746582 -7.40209961 7.2746582 -7.15209961 4.7121582 C-5.84046587 0.44934857 -4.14398635 0.02375648 0 0 Z " fill="#2F4868" transform="translate(434.402099609375,197.725341796875)"/>
<path d="M0 0 C1.2765873 -0.00945648 1.2765873 -0.00945648 2.57896423 -0.019104 C3.49980301 -0.01505554 4.42064178 -0.01100708 5.36938477 -0.00683594 C6.31386978 -0.00874939 7.2583548 -0.01066284 8.23146057 -0.01263428 C10.23129543 -0.01399679 12.23113911 -0.01029573 14.23095703 -0.00195312 C17.29487987 0.00873357 20.35821477 -0.00184009 23.42211914 -0.01464844 C25.36287565 -0.01332662 27.30363178 -0.01076377 29.24438477 -0.00683594 C30.16319931 -0.0108844 31.08201385 -0.01493286 32.02867126 -0.019104 C32.88288162 -0.01279968 33.73709198 -0.00649536 34.6171875 0 C35.36838364 0.00159119 36.11957977 0.00318237 36.89353943 0.00482178 C38.87329102 0.25878906 38.87329102 0.25878906 41.87329102 2.25878906 C41.61767778 4.60191036 41.28058329 6.93722309 40.87329102 9.25878906 C38.58126113 10.404804 37.27872411 10.39116146 34.73071289 10.40405273 C33.44928406 10.41362251 33.44928406 10.41362251 32.14196777 10.42338562 C30.75600403 10.42505486 30.75600403 10.42505486 29.34204102 10.42675781 C28.39518433 10.43008621 27.44832764 10.43341461 26.47277832 10.43684387 C24.46875495 10.44191152 22.46472313 10.44425225 20.46069336 10.4440918 C17.38584598 10.44628013 14.3113562 10.4644426 11.23657227 10.48339844 C9.29256308 10.48633195 7.34855219 10.48831703 5.40454102 10.48925781 C4.01857727 10.50003609 4.01857727 10.50003609 2.60461426 10.5110321 C1.75032837 10.50795547 0.89604248 10.50487885 0.01586914 10.50170898 C-0.73754761 10.503134 -1.49096436 10.50455902 -2.26721191 10.50602722 C-4.12670898 10.25878906 -4.12670898 10.25878906 -6.12670898 8.25878906 C-6.37670898 5.25878906 -6.37670898 5.25878906 -6.12670898 2.25878906 C-3.74129531 -0.12662461 -3.24468404 0.00688019 0 0 Z " fill="#2A4468" transform="translate(336.126708984375,177.7412109375)"/>
<path d="M0 0 C1.00595215 0.0002417 1.00595215 0.0002417 2.03222656 0.00048828 C4.07181858 -0.00387604 6.10922994 -0.04016103 8.1484375 -0.078125 C10.07816406 -0.08392578 10.07816406 -0.08392578 12.046875 -0.08984375 C13.22813965 -0.09806152 14.4094043 -0.1062793 15.62646484 -0.11474609 C19.30177657 0.46415768 20.50535346 1.42598633 22.7109375 4.37109375 C22.53340137 7.38920797 21.87358535 8.2084459 19.7109375 10.37109375 C15.45351612 10.76972871 11.18146176 10.70011916 6.9074707 10.68676758 C4.78479544 10.68361064 2.66351814 10.70705136 0.54101562 10.73242188 C-0.80728991 10.73469521 -2.15559919 10.73539821 -3.50390625 10.734375 C-4.73230225 10.73735596 -5.96069824 10.74033691 -7.22631836 10.7434082 C-10.2890625 10.37109375 -10.2890625 10.37109375 -12.22485352 9.00854492 C-13.2890625 7.37109375 -13.2890625 7.37109375 -13.1015625 4.80859375 C-11.00905328 -1.4689339 -5.65410673 0.05109133 0 0 Z " fill="#314969" transform="translate(394.2890625,197.62890625)"/>
<path d="M0 0 C1.00897339 0.00326294 1.00897339 0.00326294 2.03833008 0.0065918 C4.08859551 0.00974867 6.13741342 -0.01369197 8.1875 -0.0390625 C9.47720703 -0.03970703 10.76691406 -0.04035156 12.09570312 -0.04101562 C13.28220459 -0.04399658 14.46870605 -0.04697754 15.69116211 -0.05004883 C18.66210938 0.32226562 18.66210938 0.32226562 20.58813477 1.6496582 C21.66210938 3.32226562 21.66210938 3.32226562 21.41210938 6.44726562 C20.66210938 9.32226562 20.66210938 9.32226562 19.66210938 10.32226562 C15.26252691 10.56442428 10.85741464 10.55076892 6.4519043 10.5625 C4.23708623 10.57221092 2.02319397 10.60322353 -0.19140625 10.63476562 C-1.59309343 10.64129493 -2.99478726 10.64654569 -4.39648438 10.65039062 C-5.67837646 10.65973633 -6.96026855 10.66908203 -8.28100586 10.67871094 C-9.79416382 10.50227051 -9.79416382 10.50227051 -11.33789062 10.32226562 C-13.33789062 7.32226562 -13.33789062 7.32226562 -13.08789062 4.75976562 C-11.13917578 -1.57355761 -5.59334962 0.03077881 0 0 Z " fill="#304869" transform="translate(351.337890625,197.677734375)"/>
<path d="M0 0 C1.04752441 0.00326294 1.04752441 0.00326294 2.11621094 0.0065918 C4.24986735 0.00975385 6.38213994 -0.01371075 8.515625 -0.0390625 C9.86718575 -0.04133526 11.21875023 -0.0420391 12.5703125 -0.04101562 C13.80394531 -0.04399658 15.03757812 -0.04697754 16.30859375 -0.05004883 C17.28183594 0.07281494 18.25507813 0.19567871 19.2578125 0.32226562 C21.2578125 3.32226562 21.2578125 3.32226562 21.0703125 5.88476562 C20.2578125 8.32226562 20.2578125 8.32226562 17.2578125 10.32226562 C12.77170948 10.76684507 8.26350757 10.64639023 3.7578125 10.63476562 C1.88416016 10.65893555 1.88416016 10.65893555 -0.02734375 10.68359375 C-1.22230469 10.68423828 -2.41726563 10.68488281 -3.6484375 10.68554688 C-5.29295898 10.69001831 -5.29295898 10.69001831 -6.97070312 10.69458008 C-9.7421875 10.32226562 -9.7421875 10.32226562 -11.60351562 8.9597168 C-13.20927571 6.65057595 -13.09429786 5.06872644 -12.7421875 2.32226562 C-9.3480819 -1.07183998 -4.58227951 0.01890727 0 0 Z " fill="#324A69" transform="translate(371.7421875,157.677734375)"/>
<path d="M0 0 C0.88042969 -0.01224609 1.76085937 -0.02449219 2.66796875 -0.03710938 C3.50972656 -0.03904297 4.35148437 -0.04097656 5.21875 -0.04296875 C5.99154297 -0.04707764 6.76433594 -0.05118652 7.56054688 -0.05541992 C9.5 0.1875 9.5 0.1875 11.5 2.1875 C11.8125 5.1875 11.8125 5.1875 11.5 8.1875 C7.42926875 10.90132083 4.27671888 10.51877641 -0.5 10.5 C-1.72976563 10.52416992 -1.72976563 10.52416992 -2.984375 10.54882812 C-3.77328125 10.54947266 -4.5621875 10.55011719 -5.375 10.55078125 C-6.09429687 10.55376221 -6.81359375 10.55674316 -7.5546875 10.55981445 C-10.08108082 10.07628662 -10.98797653 9.24283191 -12.5 7.1875 C-12.3125 4.0625 -12.3125 4.0625 -11.5 1.1875 C-7.9639604 -0.5805198 -3.89428745 0.00285087 0 0 Z " fill="#2C4568" transform="translate(467.5,177.8125)"/>
<path d="M0 0 C0.78955078 -0.01224609 1.57910156 -0.02449219 2.39257812 -0.03710938 C4.45057435 -0.04237279 6.50812009 0.06543715 8.5625 0.1875 C10.5625 2.1875 10.5625 2.1875 10.875 4.625 C10.5625 7.1875 10.5625 7.1875 9.4765625 8.8203125 C6.58733583 10.88404583 4.13077681 10.62132133 0.625 10.625 C-0.60089844 10.64433594 -1.82679688 10.66367188 -3.08984375 10.68359375 C-6.4375 10.1875 -6.4375 10.1875 -8.890625 8.328125 C-10.4375 6.1875 -10.4375 6.1875 -10.25 3.5 C-8.5313169 -1.39163651 -4.51434438 0.00366722 0 0 Z " fill="#334B69" transform="translate(339.4375,157.8125)"/>
<path d="M0 0 C1.24910156 0.00515625 2.49820312 0.0103125 3.78515625 0.015625 C5.03167969 0.01046875 6.27820313 0.0053125 7.5625 0 C10.84765625 0.265625 10.84765625 0.265625 13.84765625 2.265625 C14.16015625 5.265625 14.16015625 5.265625 13.84765625 8.265625 C11.37379954 10.73948171 9.87261397 10.55133602 6.48632812 10.58789062 C5.45862305 10.58305664 5.45862305 10.58305664 4.41015625 10.578125 C3.38825195 10.60229492 3.38825195 10.60229492 2.34570312 10.62695312 C-0.61242887 10.62985041 -2.65672119 10.60514597 -5.13671875 8.90625 C-6.15234375 7.265625 -6.15234375 7.265625 -5.96484375 4.703125 C-4.73352651 1.00917328 -3.90947193 0.32942267 0 0 Z " fill="#2F4868" transform="translate(465.15234375,132.734375)"/>
<path d="M0 0 C1.73056641 -0.02513672 1.73056641 -0.02513672 3.49609375 -0.05078125 C6.5625 0.3125 6.5625 0.3125 8.453125 1.671875 C10.01866471 3.98710979 9.91265137 5.58131934 9.5625 8.3125 C7.5625 10.3125 7.5625 10.3125 4.375 10.578125 C2.4878125 10.57039062 2.4878125 10.57039062 0.5625 10.5625 C-0.695625 10.56765625 -1.95375 10.5728125 -3.25 10.578125 C-6.4375 10.3125 -6.4375 10.3125 -8.4375 8.3125 C-8.6875 5.3125 -8.6875 5.3125 -8.4375 2.3125 C-5.65940605 -0.46559395 -3.86994797 0.01294297 0 0 Z " fill="#2E4668" transform="translate(338.4375,132.6875)"/>
<path d="M0 0 C1.423125 0.4021875 1.423125 0.4021875 2.875 0.8125 C4.11387548 3.29025095 4.04241669 5.04903707 4.0625 7.8125 C4.07667969 8.699375 4.09085938 9.58625 4.10546875 10.5 C3.875 12.8125 3.875 12.8125 1.875 14.8125 C-1.125 15.125 -1.125 15.125 -4.125 14.8125 C-6.19020632 11.71469052 -6.41977024 10.8584519 -6.4375 7.3125 C-6.45425781 6.5390625 -6.47101563 5.765625 -6.48828125 4.96875 C-5.79383128 0.84685338 -4.05372819 -0.24322369 0 0 Z " fill="#29436B" transform="translate(115.125,319.1875)"/>
</svg>
